<?xml version="1.0" encoding="UTF-8" standalone="no"?>
<svg
   xmlns:dc="http://purl.org/dc/elements/1.1/"
   xmlns:cc="http://creativecommons.org/ns#"
   xmlns:rdf="http://www.w3.org/1999/02/22-rdf-syntax-ns#"
   xmlns:svg="http://www.w3.org/2000/svg"
   xmlns="http://www.w3.org/2000/svg"
   viewBox="0 0 288 137.17332"
   height="137.17332"
   width="288"
   xml:space="preserve"
   id="svg2"
   version="1.1"><metadata
     id="metadata8"><rdf:RDF><cc:Work
         rdf:about=""><dc:format>image/svg+xml</dc:format><dc:type
           rdf:resource="http://purl.org/dc/dcmitype/StillImage" /></cc:Work></rdf:RDF></metadata><defs
     id="defs6" /><g
     transform="matrix(1.3333333,0,0,-1.3333333,0,137.17333)"
     id="g10"><g
       transform="scale(0.1)"
       id="g12"><path
         id="path14"
         style="fill:#ffffff;fill-opacity:1;fill-rule:nonzero;stroke:none"
         d="M 2160,0 H 0 V 1028.83 H 2160 V 0" /><path
         id="path16"
         style="fill:#5f9ed5;fill-opacity:1;fill-rule:nonzero;stroke:none"
         d="m 2057.19,102.871 h -795.06 v 823.086 h 795.06 V 102.871" /><path
         id="path18"
         style="fill:#234e95;fill-opacity:1;fill-rule:nonzero;stroke:none"
         d="M 1262.13,102.871 H 102.871 V 925.957 H 1262.13 V 102.871" /><path
         id="path20"
         style="fill:#ffffff;fill-opacity:1;fill-rule:nonzero;stroke:none"
         d="m 1988.02,519.805 c 0,-181.278 -147.12,-328.36 -328.34,-328.36 -181.46,0 -328.32,147.082 -328.32,328.36 0,181.328 146.86,328.32 328.32,328.32 181.22,0 328.34,-146.992 328.34,-328.32" /><path
         id="path22"
         style="fill:#f9a93c;fill-opacity:1;fill-rule:nonzero;stroke:none"
         d="m 1489.3,455.703 c 3.34,1.582 11.06,5 14.48,6.672 3.97,2.02 3.42,3.652 2.23,6.875 -5.19,15.762 -7.76,32.488 -7.76,49.805 0,89.086 72.43,161.578 161.53,161.578 88.84,0 161.2,-72.492 161.2,-161.578 0,-22.766 -4.79,-44.649 -13.29,-64.231 -0.78,-1.386 -0.89,-4.168 1.45,-5.398 2.64,-1.113 12.43,-5.52 15.29,-6.633 2.92,-1.152 4.71,-0.477 6.23,2.578 9.76,22.727 15.18,47.551 15.18,73.684 0,102.871 -83.41,186.371 -186.06,186.371 -102.9,0 -186.23,-83.5 -186.23,-186.371 0,-21.094 3.5,-41.231 9.93,-60.176 0.91,-2.863 2.47,-4.727 5.82,-3.176" /><path
         id="path24"
         style="fill:#f9a93c;fill-opacity:1;fill-rule:nonzero;stroke:none"
         d="m 1442.05,433.77 c 3.78,1.992 17.1,7.988 20.6,9.777 3.65,1.512 2.8,4.57 2.2,5.957 -7.76,21.766 -11.99,45.039 -11.99,69.551 0,114.234 92.75,206.941 206.92,206.941 113.81,0 206.58,-92.707 206.58,-206.941 0,-29.239 -6.02,-57.004 -17.08,-82.219 -0.56,-1.316 -1.54,-4.453 1.98,-5.762 3.14,-1.433 18.02,-8.066 20.75,-9.297 2.92,-1.191 4.75,-0.672 6.22,2.746 12.67,28.915 19.6,60.965 19.6,94.532 0,131.429 -106.75,238.441 -238.05,238.441 -131.56,0 -238.4,-107.012 -238.4,-238.441 0,-28.918 5.28,-56.68 14.81,-82.422 0.56,-1.582 1.77,-4.727 5.86,-2.863" /><path
         id="path26"
         style="fill:#f9a93c;fill-opacity:1;fill-rule:nonzero;stroke:none"
         d="m 1377.67,404.141 c 4.61,2.304 32.62,15.254 37.46,17.402 5.08,2.18 2.86,5.996 2.16,8.098 -10.37,27.929 -16.03,58.035 -16.03,89.414 0,142.711 115.88,258.652 258.52,258.652 142.21,0 258.21,-115.941 258.21,-258.652 0,-36.067 -7.51,-70.344 -20.79,-101.641 -0.92,-1.906 -1.83,-5.684 2.92,-7.746 4.4,-2.031 31.68,-14.023 35.43,-15.496 3.65,-1.789 6.49,-1.387 8.97,4.051 15.77,37.297 24.43,78.175 24.43,120.832 0,170.789 -138.7,309.828 -309.17,309.828 -170.8,0 -309.48,-139.039 -309.48,-309.828 0,-39.289 7.33,-76.778 20.74,-111.262 0.71,-1.941 2.1,-5.594 6.63,-3.652" /><path
         id="path28"
         style="fill:#ef323b;fill-opacity:1;fill-rule:nonzero;stroke:none"
         d="m 1659.83,586.297 c 18.18,0 33.21,14.773 33.21,33.09 0,18.504 -15.03,33.242 -33.21,33.242 -18.5,0 -33.12,-14.738 -33.12,-33.242 0,-18.317 14.62,-33.09 33.12,-33.09" /><path
         id="path30"
         style="fill:#ef323b;fill-opacity:1;fill-rule:nonzero;stroke:none"
         d="m 1671.99,412.648 c 6.4,0 11.59,5.243 11.59,11.719 v 72.723 c 0.35,9.215 6.88,21.051 13.3,27.922 l 68.47,68.437 c 4.63,4.606 4.63,12.231 0,16.68 l -12.49,12.469 c -4.51,4.648 -12.08,4.648 -16.6,0 l -61.77,-61.918 c -4.25,-4.012 -7.11,-6.512 -14.66,-6.512 -7.74,0 -10.72,2.5 -14.69,6.512 l -61.87,61.918 c -4.69,4.648 -12.05,4.648 -16.54,0 l -12.59,-12.469 c -4.59,-4.449 -4.59,-12.074 0,-16.68 l 68.57,-68.437 c 6.48,-6.871 12.84,-18.707 13.15,-27.922 v -72.723 c 0,-6.476 5.24,-11.719 11.72,-11.719 h 24.41" /><path
         id="path32"
         style="fill:#234e95;fill-opacity:1;fill-rule:nonzero;stroke:none"
         d="m 1887.88,386.906 c -11.57,-4.289 -33.22,-25.656 -42.95,-34.355 l -2.72,-0.403 c 3.47,3.821 18.39,22.766 22.3,29.239 11.8,19.582 -10.47,38.008 -34.91,23.984 -9.34,-5.32 -24.87,-21.641 -32.39,-27.598 l -2.35,-0.593 c 3.35,3.367 17.2,21.484 20.81,27.363 10.77,15.848 -11.66,30.898 -30.98,19.18 -13.68,-8.215 -24.87,-19.426 -36.34,-28.321 l -2,-0.507 c 3.07,2.976 10.76,12.07 13.68,15.242 11.42,12.832 -4.93,27.609 -22.17,18.593 -16.54,-8.417 -40.31,-32.175 -66.35,-48.855 12.07,-6.516 33.32,-7.512 66.99,-21.887 33.78,-14.414 44.7,-47.976 22.64,-74.472 -20.36,-24.551 -51.37,-16.289 -78.07,-7.938 -30.98,9.688 -41.97,19.695 -79.26,32.645 -24.35,8.496 -34.34,8.379 -33.88,15.332 0.4,7.98 21.47,3.215 41.17,-3.934 54.71,-19.855 127.32,-64.863 145.15,-16.32 14.1,38.242 -48.92,54.844 -73.06,59.414 -33.58,6.476 -56.74,31.066 -85.84,46.75 -43.98,23.711 -77.8,24.305 -102.89,19.785 -27.01,-4.805 -65.5,-26.855 -88.79,-40.871 -16.21,-9.578 -15,-24.227 0.79,-46.668 56.13,-79.719 148.56,-131.836 253.22,-131.836 110.97,0 208.39,58.945 262.92,146.688 12.14,19.582 -6.88,40.234 -34.72,30.343" /><path
         id="path34"
         style="fill:#ffffff;fill-opacity:1;fill-rule:nonzero;stroke:none"
         d="m 1000.93,173.887 c 0.06,-8.895 31.83,-18.543 48.47,-18.543 16.57,0 39.88,6.238 51.88,35.75 12.62,31.054 64.94,210.273 64.94,210.273 l 5.9,0.117 c 11.74,2.063 15.99,9.055 15.99,27.051 0,6.477 -0.91,7.031 -6.14,7.031 h -42.94 c -4.13,-0.125 -4.52,-0.761 -5.82,-5.007 l -35.74,-138.184 -36.83,138.184 c -1.15,4.246 -1.7,4.882 -5.78,5.007 h -43.17 c -5.18,0 -6.12,-0.554 -6.12,-7.031 0,-18.035 4.41,-25.066 16.21,-27.051 l 6.04,-0.117 c 0,0 34.33,-120.273 52.4,-170.672 l -2.64,-9.777 c -5.77,-18.867 -15.82,-27.527 -31.59,-27.527 -3.84,0 -24.96,3.222 -24.96,3.222 -11.98,0.946 -15.18,-4.054 -16.49,-8.379 -2.18,-6.164 -3.61,-13.117 -3.61,-14.347" /><path
         id="path36"
         style="fill:#ffffff;fill-opacity:1;fill-rule:nonzero;stroke:none"
         d="m 854.52,502.727 h -51.219 c -4.508,0 -4.567,-0.481 -5.278,-5 L 769.105,318.75 734.293,496.809 c -0.914,4.804 -1.613,5.918 -7.09,5.918 h -23.476 c -8.598,0 -8.977,-1.309 -9.973,-6.231 L 657.313,318.75 630.027,497.727 c -0.695,4.519 -0.793,5 -5.203,5 h -52.722 c -5.446,0 -6.34,-0.52 -6.34,-7.227 0,-19.699 4.843,-26.895 18.75,-28.477 l 5.316,-0.363 40.078,-220.203 c 1.395,-5.117 1.887,-6.152 6.676,-6.152 h 34.731 c 5.601,0 5.781,0.273 6.714,6.152 l 34.614,171.231 29.039,-171.387 c 1.152,-5.723 1.152,-5.996 6.812,-5.996 h 35.391 c 4.68,0 5.379,1.035 6.609,6.152 l 45.481,220.398 5.043,0.168 c 14.023,1.582 18.687,8.817 18.687,28.477 0,6.238 -0.871,6.914 -5.183,7.227" /><path
         id="path38"
         style="fill:#ffffff;fill-opacity:1;fill-rule:nonzero;stroke:none"
         d="m 942.379,283.996 c -4.766,-5.246 -14.856,-16.008 -28.918,-16.008 -14.395,0 -25.496,12.395 -25.496,28.594 0,36.184 42.719,34.004 54.414,33.125 z m 45.656,-9.219 c -2.082,7.664 -4.051,17.325 -4.051,35.039 v 69.305 c 0,43.652 -18.945,63.039 -62.058,63.039 -29.988,0 -61.727,-12.91 -61.727,-21.055 0,-0.996 1.332,-7.394 3.379,-13.183 0.934,-2.551 2.86,-8.508 15.567,-7.59 5.148,0.402 27.148,4.609 36.425,4.609 24.387,0 26.809,-14.218 26.809,-30.945 v -13.82 c -30.367,0 -95.984,-0.321 -95.984,-66.328 0,-37.227 20.617,-60.301 53.941,-60.301 25.227,0 37.832,13.828 45.344,22.207 l 2.894,3.211 0.934,-5.039 c 1.551,-8.067 3.043,-13.621 9.219,-13.621 h 44.203 c 5.5,0 6.18,0.437 6.18,6.785 0,19.785 -4.69,26.738 -21.075,27.687" /><path
         id="path40"
         style="fill:#ffffff;fill-opacity:1;fill-rule:nonzero;stroke:none"
         d="m 677.613,599.523 -4.707,0.122 v 156.179 c 0,3.86 -0.277,4.293 -3.89,4.293 h -61.77 c -5.383,0 -6.016,-0.433 -6.016,-6.867 0,-21.25 5.641,-27.727 23.989,-27.727 h 4.41 V 599.645 l -4.688,-0.122 c -18.386,0 -23.949,-6.554 -23.949,-27.765 0,-6.352 0.832,-6.867 6.137,-6.867 h 88.336 c 5.164,0 6.156,0.515 6.156,6.867 0,21.012 -5.976,27.765 -24.008,27.765" /><path
         id="path42"
         style="fill:#ffffff;fill-opacity:1;fill-rule:nonzero;stroke:none"
         d="m 650.82,834.207 c -14.836,0 -26.293,-12.375 -26.293,-28.062 0,-15.45 11.739,-28.223 26.293,-28.223 14.278,0 25.7,12.773 25.7,28.223 0,15.429 -11.422,28.062 -25.7,28.062" /><path
         id="path44"
         style="fill:#ffffff;fill-opacity:1;fill-rule:nonzero;stroke:none"
         d="m 358.523,784.797 h 1.157 c 18.765,0 24.668,6.93 24.668,28.637 0,6.41 -0.797,7.07 -6.243,7.07 h -85.058 c -4.824,0 -5.52,-0.816 -6.035,-3.734 l -0.199,-3.336 c 0,-21.653 5.878,-28.5 24.308,-28.637 h 1.192 V 656.598 c 0,-24.586 0,-57.989 -39.383,-57.989 -36.442,0 -39.36,26.254 -39.36,57.989 v 128.199 h 1.25 c 18.289,0.137 24.246,6.984 24.246,28.637 l -0.277,4.046 c -0.512,2.305 -1.269,3.024 -5.957,3.024 h -84.918 c -5.426,0 -6.316,-0.66 -6.316,-7.07 0,-21.95 5.621,-28.637 24.726,-28.637 h 1.114 V 656.598 c 0,-69.028 25.597,-98.578 85.492,-98.578 59.918,0 85.593,29.55 85.593,98.578 v 128.199" /><path
         id="path46"
         style="fill:#ffffff;fill-opacity:1;fill-rule:nonzero;stroke:none"
         d="m 555.598,599.523 v 105.461 c 0,42.782 -14.028,61.954 -45.485,61.954 -28.14,0 -43.668,-16.391 -55.742,-28.829 -1.055,4.536 -1.949,8.11 -1.949,8.11 -1.887,8.578 -3.516,13.898 -9.039,13.898 h -47.699 c -5.325,0 -6.079,-0.433 -6.079,-6.867 0,-20.102 5.047,-27.254 21.95,-27.687 2.398,-8.461 3.949,-15.333 3.949,-35.477 v -90.563 c -17.992,-0.117 -23.473,-6.714 -23.473,-27.765 0,-6.352 0.914,-6.867 6.176,-6.867 h 56.816 c 3.477,0 3.7,0.515 3.7,4.207 v 141.371 c 5.218,5.402 17.015,17.199 32.144,17.199 21.531,0 21.531,-24.586 21.531,-35.121 V 569.098 c 0,-3.692 0.141,-4.207 3.813,-4.207 h 56.562 c 5.2,0 6.137,0.515 6.137,6.867 0,20.777 -5.801,27.562 -23.312,27.765" /><path
         id="path48"
         style="fill:#ffffff;fill-opacity:1;fill-rule:nonzero;stroke:none"
         d="m 783.762,558.02 c 25.179,0 45.695,6.55 45.695,12.031 0,0.957 -1.488,8.383 -2.363,12.035 -3.535,14.695 -4.926,20.098 -31.656,16.762 -3.375,-0.395 -6.415,0.359 -8.54,2.461 -5.144,5.246 -5.144,16.761 -5.144,26.015 v 98.199 h 23.992 c 18.43,0 23.934,6.477 23.934,27.727 0,6.434 -0.797,6.867 -6.121,6.867 h -41.805 v 54.805 c 0,5.262 -0.453,5.519 -2.461,5.582 -1.887,0 -10.703,-1.172 -15.172,-1.809 -12.375,-2.09 -25.601,-11.656 -25.601,-33.761 v -24.817 h -24.727 c -5.238,0 -6.133,-0.433 -6.133,-6.867 0,-21.25 5.68,-27.727 23.906,-27.727 h 6.954 v -91.484 c 0,-37.332 0,-76.019 45.242,-76.019" /><path
         id="path50"
         style="fill:#ffffff;fill-opacity:1;fill-rule:nonzero;stroke:none"
         d="m 890.09,684.723 0.258,3.375 c 1.172,13.316 3.91,44.297 31.578,44.297 27.066,0 27.183,-31.579 27.183,-47.672 z m 103.566,-25.739 c 0,71.582 -23.91,107.954 -70.758,107.954 -46.492,0 -77.55,-42.684 -77.55,-106.407 0,-84.601 43.132,-102.511 79.437,-102.511 29.195,0 63.098,13.738 63.098,22.359 0,1.351 -1.414,7.941 -3.379,13.859 -1.328,4.293 -3.895,8.703 -16.207,8.106 -9.512,-0.477 -24.785,-4.887 -38.883,-4.887 -27.012,0 -40.754,16.879 -40.934,52.828 h 98.165 c 5.8,0 7.011,1.469 7.011,8.699" /><path
         id="path52"
         style="fill:#ffffff;fill-opacity:1;fill-rule:nonzero;stroke:none"
         d="m 1089.84,595.391 c -26.28,0 -31.48,24.113 -31.48,65.937 0,44.293 5.44,68.246 33.75,68.246 11.2,0 19.44,-2.383 28.77,-8.539 V 610.25 c -5.56,-6.559 -13.54,-14.859 -31.04,-14.859 z m 78.27,4.132 c -2.41,7.665 -3.89,15.688 -3.89,34.872 v 194.687 c 0,3.633 -0.3,4.152 -3.9,4.152 h -56.89 c -5.3,0 -6.3,-0.519 -6.3,-6.734 0,-20.574 5.53,-27.445 22.61,-27.781 h 1.14 v -44.953 l -3.52,2.422 c -6.55,4.605 -15.37,10.75 -34.35,10.75 -44.37,0 -68.01,-38.872 -68.01,-112.485 0,-62.117 21.49,-96.433 60.5,-96.433 30.91,0 51.22,22.636 51.22,22.636 l 2.47,-8.418 c 1.83,-6.597 2.18,-7.347 7.44,-7.347 h 50.13 c 5.18,0 6.11,0.515 6.11,6.867 0,20.894 -5.52,27.765 -24.76,27.765" /><path
         id="path54"
         style="fill:#ffffff;fill-opacity:1;fill-rule:nonzero;stroke:none"
         d="m 1959.58,179.016 h 4.5 c 5.07,0 7.07,0.672 7.07,4.363 0,2.785 -1.73,4.055 -6.01,4.055 h -5.56 z m 0,-15.528 h -4.07 v 27.442 h 10.28 c 6.34,0 9.51,-2.539 9.51,-7.785 0,-4.883 -3.17,-6.993 -6.61,-7.422 l 7.35,-12.235 h -4.95 l -7.28,12.11 h -4.23 z m 23.81,14.063 c 0,10.957 -8.36,19.461 -19.1,19.461 -10.67,0 -19.08,-8.504 -19.08,-19.461 0,-11.367 8.41,-19.785 19.08,-19.785 10.74,0 19.1,8.418 19.1,19.785 z m -42.64,0 c 0,13.066 10.76,23.191 23.54,23.191 12.86,0 23.69,-10.125 23.69,-23.191 0,-13.43 -10.83,-23.594 -23.69,-23.594 -12.78,0 -23.54,10.164 -23.54,23.594" /></g></g></svg>